<svg width="120" height="40" viewBox="0 0 120 40" fill="none" xmlns="http://www.w3.org/2000/svg">
<path fill-rule="evenodd" clip-rule="evenodd" d="M96.9341 9.38317C97.9245 7.26359 99.0406 5.20505 100.276 3.21855C99.3356 1.98998 98.2201 0.90565 96.9653 0C95.6579 0.903694 94.1693 4.72221 94.1693 6.88707C94.676 8.08733 95.6885 9.00139 96.9341 9.38317ZM116.594 11.9093C114.469 16.9627 111.793 24.1797 107.932 29.2319C108.267 27.5483 109.697 19.58 113.252 13.2029C112.14 12.5663 110.968 12.0424 109.752 11.6393C107.843 14.8569 106.342 18.2998 105.285 21.8886C103.862 23.2785 99.9977 27.1233 97.8153 28.7482C98.0772 26.8164 98.5577 24.9206 99.2477 23.0973C101.283 20.45 107.36 12.9029 109.578 8.35948C110.854 5.74339 108.637 2.88607 105.051 2.16362C102.224 4.75095 97.6053 13.8941 94.7205 22.7361C92.7444 24.9609 89.9195 27.9083 89.9195 27.9083C91.4231 22.9056 93.2177 17.995 95.2942 13.2017C93.8373 12.4809 92.2958 11.9456 90.7057 11.608C89.6421 13.9541 88.5184 16.9314 86.9985 20.9312C86.9985 20.9312 84.0524 25.6509 81.925 28.5095C83.1872 23.1461 84.9153 17.9032 87.0897 12.8405C85.8127 12.2396 84.4797 11.7657 83.11 11.4255C83.11 11.4255 82.5325 12.3005 81.86 13.4729C80.68 12.577 79.3237 11.9411 77.8803 11.6068C77.0149 11.8146 76.2337 12.2821 75.6417 12.9467C75.1154 12.5447 74.5639 12.1769 73.9905 11.8455C71.6111 13.3435 69.5967 15.3545 68.0947 17.7314C68.5939 16.2086 69.2038 14.7243 69.9195 13.2904C68.6011 12.5695 67.16 12.1002 65.6698 11.9068C65.6583 11.9204 65.6486 11.9356 65.6411 11.9518C64.9898 12.9517 56.2529 26.5758 54.8217 29.0757C56.5484 23.6158 58.5981 18.2633 60.9601 13.0467C59.8964 12.5355 58.3765 11.9043 57.1916 11.483C56.6766 12.5967 54.0318 18.5813 52.0569 22.9111C50.807 25.6459 49.0783 28.9244 48.3496 28.9244C46.8297 28.9244 48.3496 21.7999 52.2994 12.7467C50.9481 12.2445 49.5553 11.8618 48.1371 11.603C46.808 14.4117 45.6395 17.2937 44.6374 20.235C43.3612 22.1574 39.0765 29.2857 39.0765 29.2857C40.5954 22.6575 42.6178 16.1549 45.1261 9.83439L54.8492 10.2244V7.90951L45.9473 7.78452L48.2259 3.1848C47.041 2.46235 44.3361 0.95744 44.0324 1.83114L41.5713 7.84951L31.1795 7.90826L31.7269 9.59315L40.8764 9.83439L37.6853 17.8651C36.2566 20.8412 32.1856 28.1795 31.4257 29.2019C32.3381 25.1722 33.7055 17.3539 36.2266 13.2942C34.9914 12.4199 33.5818 11.823 32.0944 11.5443C32.0944 11.5443 31.8207 12.1155 31.2132 13.3492C29.7189 11.9987 27.7135 11.3607 25.7135 11.5993C23.5562 12.0805 20.0014 19.0276 19.214 21.5249L14.6805 29.1107C15.2879 23.8173 18.539 15.669 18.8127 14.9166C17.7709 14.0126 16.6045 13.2633 15.3492 12.6917C13.7993 13.3229 7.81342 21.5037 6.90222 23.1273C7.79657 19.6373 9.12343 16.2727 10.852 13.1117C9.70643 12.3285 8.48493 11.6627 7.20596 11.1243C3.80367 15.3678 1.06884 25.4984 0.00390625 30.1931C1.29408 31.0989 2.7059 31.8177 4.19739 32.328C6.06533 27.4994 8.68039 22.9943 11.9469 18.9776C10.792 22.8261 9.42457 29.4432 10.3358 30.0419C11.6184 30.7608 13.0169 31.2498 14.468 31.4868C16.4429 28.3882 18.539 25.0209 18.934 24.2985C16.8979 30.8531 21.3951 32.6292 23.9174 30.7981C25.4373 29.6869 27.8684 25.7171 27.8684 25.7171C27.8684 25.7171 26.6185 29.7169 27.261 30.8581C27.261 30.8581 27.7159 31.3105 31.6357 31.4918L36.4366 22.9811C36.4366 22.9811 34.158 30.4993 35.1305 30.9806C36.4209 31.258 37.7318 31.4294 39.0502 31.493C39.9614 30.2894 42.7575 25.4484 43.7599 23.8235C42.9087 26.8858 41.8763 31.873 46.5547 31.3368C48.9296 31.0956 51.112 27.427 52.4794 24.691C51.3857 27.847 50.8095 30.0131 51.052 30.7631C52.287 31.0184 53.5344 31.2099 54.7892 31.3368C56.2041 29.1294 60.6151 22.0724 63.6212 17.2552C61.7075 22.6298 59.2177 30.1694 59.6514 30.6768C60.895 31.0237 62.1657 31.2646 63.4499 31.3968C64.1561 29.1394 65.0986 26.2909 66.0498 23.5223C67.829 20.4804 70.3191 17.9152 73.3068 16.0465C71.6492 18.8137 70.4932 21.8518 69.892 25.0209C69.3758 28.3595 69.4971 30.1331 71.5932 31.0643C72.5519 31.4994 73.662 31.443 74.5717 30.9131C76.0904 29.8006 78.5215 25.5309 78.5215 25.5309C77.8228 27.7808 77.2141 30.7631 77.8528 30.9743C78.861 31.2809 79.8854 31.5313 80.9213 31.7243C83.9287 27.8733 86.2385 24.1235 86.2385 24.1235C85.8135 25.6559 84.4461 30.3731 84.9886 30.6231L88.9696 31.4043L94.103 25.5709C93.5581 27.6158 92.9481 30.7718 93.7405 30.9531C93.8305 30.9831 95.2579 31.2243 96.4429 31.5255C99.4421 29.2619 102.277 26.7884 104.926 24.1235C104.196 28.2745 103.619 31.1893 104.076 31.2481C105.261 31.4484 106.46 31.5595 107.662 31.5805C108.905 30.0156 112.704 24.7847 112.704 24.7847C112.579 25.0247 109.637 31.4305 106.871 37.0827C106.386 38.0764 108.147 39.2788 109.246 40C113.979 32.4492 118.659 16.9627 119.996 13.4442C119.418 13.2029 117.2 12.1805 116.594 11.9093ZM107.595 4.90094C108.47 5.14218 109.081 6.65084 108.262 8.32948C105.942 12.6954 103.117 16.7736 99.8452 20.48C101.619 14.9212 104.234 9.6671 107.6 4.90094H107.595ZM23.9474 29.2919C20.4539 31.3055 24.4036 17.9851 27.4722 15.1878C28.1709 14.5253 29.3558 14.9766 30.3595 15.639C29.5996 17.4989 27.5022 25.5934 23.9474 29.2919ZM81.2551 16.1802C80.4639 18.0451 78.459 25.2322 74.9042 28.9294C70.8632 31.818 76.2716 18.0451 79.3402 15.2466C80.0389 14.5866 81.5888 15.3378 81.2551 16.1815V16.1802Z" fill="#FE5E44"/>
</svg>
